<svg width="70" height="26" viewBox="0 0 70 26" fill="none" xmlns="http://www.w3.org/2000/svg">
<path d="M69.5 13C69.5 14.5987 68.6294 16.183 66.9196 17.6845C65.2107 19.1852 62.709 20.5595 59.5746 21.7237C53.3097 24.0507 44.6214 25.5 35 25.5C25.3786 25.5 16.6903 24.0507 10.4254 21.7237C7.29098 20.5595 4.78934 19.1852 3.0804 17.6845C1.37057 16.183 0.5 14.5987 0.5 13C0.5 11.4013 1.37057 9.81701 3.0804 8.31551C4.78934 6.8148 7.29098 5.44052 10.4254 4.27632C16.6903 1.94935 25.3786 0.5 35 0.5C44.6214 0.5 53.3097 1.94935 59.5746 4.27632C62.709 5.44052 65.2107 6.8148 66.9196 8.31551C68.6294 9.81701 69.5 11.4013 69.5 13Z" stroke="#121D20"/>
</svg>
